<svg width="48" height="48" viewBox="0 0 48 48" fill="none" xmlns="http://www.w3.org/2000/svg">
<path d="M31.5 41C30.849 41 30.271 40.579 30.072 39.959L27.145 30.855L18.041 27.928C17.421 27.729 17 27.151 17 26.5C17 25.849 17.421 25.271 18.041 25.072L27.145 22.145L30.072 13.041C30.271 12.421 30.849 12 31.5 12C32.151 12 32.729 12.421 32.928 13.041L35.855 22.145L44.959 25.072C45.579 25.271 46 25.849 46 26.5C46 27.151 45.579 27.729 44.959 27.928L35.855 30.855L32.928 39.959C32.729 40.579 32.151 41 31.5 41Z" fill="#F79B73"/>
<path d="M10.577 21.975C10.781 22.587 11.354 23 12 23C12.646 23 13.219 22.587 13.423 21.975L15.311 16.311L20.975 14.423C21.587 14.219 22 13.646 22 13C22 12.354 21.587 11.781 20.975 11.577L15.311 9.689L13.423 4.025C13.219 3.413 12.646 3 12 3C11.354 3 10.781 3.413 10.577 4.025L8.689 9.689L3.025 11.577C2.413 11.781 2 12.354 2 13C2 13.646 2.413 14.219 3.025 14.423L8.689 16.311L10.577 21.975Z" fill="#FFB4DC"/>
<path d="M9.077 43.975C9.281 44.587 9.854 45 10.5 45C11.146 45 11.719 44.587 11.923 43.975L13.436 39.436L17.975 37.923C18.587 37.719 19 37.146 19 36.5C19 35.854 18.587 35.281 17.975 35.077L13.436 33.564L11.923 29.025C11.719 28.413 11.146 28 10.5 28C9.854 28 9.281 28.413 9.077 29.025L7.563 33.564L3.025 35.077C2.413 35.281 2 35.854 2 36.5C2 37.146 2.413 37.719 3.025 37.923L7.563 39.436L9.077 43.975Z" fill="#98E15F"/>
</svg>
